<svg xmlns="http://www.w3.org/2000/svg" viewBox="80 60 640 480" width="640" height="480" role="img" aria-label="halwa">
  <defs>
    <linearGradient id="bgGrad" x1="0" y1="0" x2="1" y2="1">
      <stop offset="0%" stop-color="#fff6e7"/>
      <stop offset="100%" stop-color="#dcd0c1"/>
    </linearGradient>
    <radialGradient id="foodGrad" cx="35%" cy="28%" r="78%">
      <stop offset="0%" stop-color="#f4984c"/>
      <stop offset="60%" stop-color="#c66a1e"/>
      <stop offset="100%" stop-color="#a24600"/>
    </radialGradient>
    <radialGradient id="vignette" cx="50%" cy="45%" r="72%">
      <stop offset="55%" stop-color="#000" stop-opacity="0"/>
      <stop offset="100%" stop-color="#3a2417" stop-opacity=".22"/>
    </radialGradient>
  </defs>
  <rect x="0" y="0" width="800" height="600" fill="url(#bgGrad)"/>
  <circle cx="128" cy="122" r="52" fill="#ffffff" opacity=".38"/>
  <circle cx="692" cy="162" r="30" fill="#ffffff" opacity=".3"/>
  <circle cx="648" cy="96" r="14" fill="#f0a94d" opacity=".38"/>
  <circle cx="124" cy="496" r="22" fill="#f0a94d" opacity=".3"/>
  <ellipse cx="400" cy="520" rx="330" ry="66" fill="#c5b9aa"/>
  
      <g>
        <ellipse cx="400" cy="492" rx="188" ry="30" fill="#000" opacity=".14"/>
        <path d="M212 320 L588 320 Q566 486 400 486 Q234 486 212 320 Z" fill="#ffffff"/>
        <path d="M232 336 L568 336 Q548 468 400 468 Q252 468 232 336 Z" fill="#ffb76b" opacity=".5"/>
        <ellipse cx="400" cy="322" rx="188" ry="46" fill="url(#foodGrad)"/>
        <ellipse cx="400" cy="316" rx="150" ry="34" fill="#e5893d"/>
        <circle cx="356" cy="308" r="13" fill="#f0a94d"/>
        <circle cx="424" cy="318" r="11" fill="#f0a94d" opacity=".85"/>
        <circle cx="392" cy="330" r="9" fill="#ffffff" opacity=".6"/>
      </g>
  <rect x="0" y="0" width="800" height="600" fill="url(#vignette)"/>
</svg>
