<svg xmlns="http://www.w3.org/2000/svg" viewBox="80 60 640 480" width="640" height="480" role="img" aria-label="namak para">
  <defs>
    <linearGradient id="bgGrad" x1="0" y1="0" x2="1" y2="1">
      <stop offset="0%" stop-color="#fffcef"/>
      <stop offset="100%" stop-color="#dcd6c9"/>
    </linearGradient>
    <radialGradient id="foodGrad" cx="35%" cy="28%" r="78%">
      <stop offset="0%" stop-color="#ffffd6"/>
      <stop offset="60%" stop-color="#ecd9a8"/>
      <stop offset="100%" stop-color="#c8b584"/>
    </radialGradient>
    <radialGradient id="vignette" cx="50%" cy="45%" r="72%">
      <stop offset="55%" stop-color="#000" stop-opacity="0"/>
      <stop offset="100%" stop-color="#3a2417" stop-opacity=".22"/>
    </radialGradient>
  </defs>
  <rect x="0" y="0" width="800" height="600" fill="url(#bgGrad)"/>
  <circle cx="128" cy="122" r="52" fill="#ffffff" opacity=".38"/>
  <circle cx="692" cy="162" r="30" fill="#ffffff" opacity=".3"/>
  <circle cx="648" cy="96" r="14" fill="#c39c52" opacity=".38"/>
  <circle cx="124" cy="496" r="22" fill="#c39c52" opacity=".3"/>
  <ellipse cx="400" cy="520" rx="330" ry="66" fill="#c5bfb2"/>
  
      
      <g transform="translate(300 372) rotate(-6) scale(1)">
        <path d="M0 -58 L96 0 L0 58 L-96 0 Z" fill="#000" opacity=".12" transform="translate(0 16)"/>
        <path d="M0 -58 L96 0 L0 58 L-96 0 Z" fill="url(#foodGrad)"/>
        <path d="M0 -58 L96 0 L0 58 L-96 0 Z" fill="none" stroke="#c3b07f" stroke-width="3"/>
        <path d="M0 -40 L66 0 L0 40 L-66 0 Z" fill="#c39c52" opacity=".35"/>
      </g>
      
      <g transform="translate(508 356) rotate(5) scale(0.95)">
        <path d="M0 -58 L96 0 L0 58 L-96 0 Z" fill="#000" opacity=".12" transform="translate(0 16)"/>
        <path d="M0 -58 L96 0 L0 58 L-96 0 Z" fill="url(#foodGrad)"/>
        <path d="M0 -58 L96 0 L0 58 L-96 0 Z" fill="none" stroke="#c3b07f" stroke-width="3"/>
        <path d="M0 -40 L66 0 L0 40 L-66 0 Z" fill="#c39c52" opacity=".35"/>
      </g>
      
      <g transform="translate(402 268) rotate(-2) scale(0.86)">
        <path d="M0 -58 L96 0 L0 58 L-96 0 Z" fill="#000" opacity=".12" transform="translate(0 16)"/>
        <path d="M0 -58 L96 0 L0 58 L-96 0 Z" fill="url(#foodGrad)"/>
        <path d="M0 -58 L96 0 L0 58 L-96 0 Z" fill="none" stroke="#c3b07f" stroke-width="3"/>
        <path d="M0 -40 L66 0 L0 40 L-66 0 Z" fill="#c39c52" opacity=".35"/>
      </g>
  <rect x="0" y="0" width="800" height="600" fill="url(#vignette)"/>
</svg>
