<svg xmlns="http://www.w3.org/2000/svg" viewBox="80 60 640 480" width="640" height="480" role="img" aria-label="pastry">
  <defs>
    <linearGradient id="bgGrad" x1="0" y1="0" x2="1" y2="1">
      <stop offset="0%" stop-color="#fff7f1"/>
      <stop offset="100%" stop-color="#dad1cb"/>
    </linearGradient>
    <radialGradient id="foodGrad" cx="35%" cy="28%" r="78%">
      <stop offset="0%" stop-color="#fffffc"/>
      <stop offset="60%" stop-color="#f6e2ce"/>
      <stop offset="100%" stop-color="#d2beaa"/>
    </radialGradient>
    <radialGradient id="vignette" cx="50%" cy="45%" r="72%">
      <stop offset="55%" stop-color="#000" stop-opacity="0"/>
      <stop offset="100%" stop-color="#3a2417" stop-opacity=".22"/>
    </radialGradient>
  </defs>
  <rect x="0" y="0" width="800" height="600" fill="url(#bgGrad)"/>
  <circle cx="128" cy="122" r="52" fill="#ffffff" opacity=".38"/>
  <circle cx="692" cy="162" r="30" fill="#ffffff" opacity=".3"/>
  <circle cx="648" cy="96" r="14" fill="#7a4a2c" opacity=".38"/>
  <circle cx="124" cy="496" r="22" fill="#7a4a2c" opacity=".3"/>
  <ellipse cx="400" cy="520" rx="330" ry="66" fill="#c3bab4"/>
  
      <g>
        <ellipse cx="400" cy="486" rx="190" ry="28" fill="#000" opacity=".14"/>
        <path d="M250 460 L400 200 L550 460 Z" fill="url(#foodGrad)"/>
        <path d="M283 402 L400 200 L517 402 Z" fill="#7a4a2c" opacity=".38"/>
        <path d="M250 460 L550 460 L540 486 L260 486 Z" fill="#d2beaa"/>
        <path d="M312 372 Q400 348 488 372" stroke="#ffffff" stroke-width="14" fill="none" opacity=".65" stroke-linecap="round"/>
        <circle cx="400" cy="214" r="20" fill="#e5484d"/>
        <path d="M400 196 Q412 176 428 180" stroke="#2f7d3a" stroke-width="7" fill="none" stroke-linecap="round"/>
      </g>
  <rect x="0" y="0" width="800" height="600" fill="url(#vignette)"/>
</svg>
